# xmcd
#
# Track frame offsets: 
#        150
#        13453
#        33924
#        54585
#        71909
#        90315
#        111346
#        122318
#        141133
#        153018
#        168085
#        182790
#        200133
#        215652
#        229197
#        246524
#
# Disc length: 3604 seconds
#
# Revision: 0
# Processed by: cddbd v1.5.2PL0 Copyright (c) Steve Scherf et al.
# Submitted via: ExactAudioCopy v1.0b1
#
DISCID=e30e1210
DTITLE=Various Artist - Moulin Blues 2015
DYEAR=2015
DGENRE=Blues
TTITLE0=Mavis Staples - Can You Get To That
TTITLE1=Matt Andersen - Weightless
TTITLE2=44's feat. Kid Ramos - 99 To Life
TTITLE3=Selwyn Birchwood - Don't Call No Ambulance
TTITLE4=Devon Allman Band - When I Left Home
TTITLE5=Mr. Sipp - Why Do You Do Me This Way
TTITLE6=John The Conqueror - Waking Up To You
TTITLE7=Kent Burnside - I Heard
TTITLE8=Daddy Long Legs - Long John's Jump
TTITLE9=Soulstack - Not The Only One
TTITLE10=Joanne Shaw Taylor - The Dirty Truth
TTITLE11=Hightones - Lucky One
TTITLE12=Hat Fitz and Cara Robinson - 99.9
TTITLE13=Ralph De Jong - Hard Time Killing Floor (live)
TTITLE14=Lightnin' Guy - Breakin' Out
TTITLE15=Boom Band - We Can Work Together
EXTD=
EXTT0=
EXTT1=
EXTT2=
EXTT3=
EXTT4=
EXTT5=
EXTT6=
EXTT7=
EXTT8=
EXTT9=
EXTT10=
EXTT11=
EXTT12=
EXTT13=
EXTT14=
EXTT15=
PLAYORDER=
